<svg id="visual" viewBox="0 0 960 100" width="960" height="100" xmlns="http://www.w3.org/2000/svg" xmlns:xlink="http://www.w3.org/1999/xlink" version="1.1"><rect x="0" y="0" width="960" height="100" fill="#FFFFFF"></rect><path d="M0 52L13.3 46.3C26.7 40.7 53.3 29.3 80 21.7C106.7 14 133.3 10 160 14.3C186.7 18.7 213.3 31.3 240 33.7C266.7 36 293.3 28 320 32.2C346.7 36.3 373.3 52.7 400 54.3C426.7 56 453.3 43 480 32.8C506.7 22.7 533.3 15.3 560 12.3C586.7 9.3 613.3 10.7 640 19.8C666.7 29 693.3 46 720 51C746.7 56 773.3 49 800 49.5C826.7 50 853.3 58 880 56.2C906.7 54.3 933.3 42.7 946.7 36.8L960 31L960 0L946.7 0C933.3 0 906.7 0 880 0C853.3 0 826.7 0 800 0C773.3 0 746.7 0 720 0C693.3 0 666.7 0 640 0C613.3 0 586.7 0 560 0C533.3 0 506.7 0 480 0C453.3 0 426.7 0 400 0C373.3 0 346.7 0 320 0C293.3 0 266.7 0 240 0C213.3 0 186.7 0 160 0C133.3 0 106.7 0 80 0C53.3 0 26.7 0 13.3 0L0 0Z" fill="#171717" stroke-linecap="round" stroke-linejoin="miter"></path></svg>