<svg id="visual" viewBox="0 0 960 100" width="960" height="100" xmlns="http://www.w3.org/2000/svg" xmlns:xlink="http://www.w3.org/1999/xlink" version="1.1"><rect x="0" y="0" width="960" height="100" fill="#FFFFFF"></rect><path d="M0 78L13.3 71.3C26.7 64.7 53.3 51.3 80 52.5C106.7 53.7 133.3 69.3 160 70.8C186.7 72.3 213.3 59.7 240 49.5C266.7 39.3 293.3 31.7 320 37.3C346.7 43 373.3 62 400 72.7C426.7 83.3 453.3 85.7 480 77.2C506.7 68.7 533.3 49.3 560 49.5C586.7 49.7 613.3 69.3 640 78.3C666.7 87.3 693.3 85.7 720 81.7C746.7 77.7 773.3 71.3 800 73.2C826.7 75 853.3 85 880 83C906.7 81 933.3 67 946.7 60L960 53L960 101L946.7 101C933.3 101 906.7 101 880 101C853.3 101 826.7 101 800 101C773.3 101 746.7 101 720 101C693.3 101 666.7 101 640 101C613.3 101 586.7 101 560 101C533.3 101 506.7 101 480 101C453.3 101 426.7 101 400 101C373.3 101 346.7 101 320 101C293.3 101 266.7 101 240 101C213.3 101 186.7 101 160 101C133.3 101 106.7 101 80 101C53.3 101 26.7 101 13.3 101L0 101Z" fill="#171717" stroke-linecap="round" stroke-linejoin="miter"></path></svg>